<?xml version="1.0" encoding="utf-8"?>
<!-- Generator: Adobe Illustrator 23.0.3, SVG Export Plug-In . SVG Version: 6.00 Build 0)  -->
<svg version="1.1" id="Layer_1" xmlns="http://www.w3.org/2000/svg" xmlns:xlink="http://www.w3.org/1999/xlink" x="0px" y="0px"
	 viewBox="0 0 504.21 417.61" style="enable-background:new 0 0 504.21 417.61;" xml:space="preserve">
<style type="text/css">
	.st0{fill:#323231;}
	.st1{fill:#D0603C;}
</style>
<path class="st0" d="M184.24,135.45c1.15-0.96,2.46-2.43,3.91-4.42c1.45-1.98,2.7-4.39,3.77-7.24c1.06-2.85,1.59-6.05,1.59-9.63
	c0-5.4-1.3-10.25-3.91-14.55c-2.61-4.29-6.1-7.71-10.49-10.28c-3.67-2.13-7.62-3.36-11.86-3.72l-32.42,15.67l-0.25,84.25
	c0,0.49,0.2,0.73,0.58,0.73h16.36c0.38,0,0.58-0.24,0.58-0.73l0.15-42.56h9.55c3.56,0,6.59,1.28,9.04,3.84
	c2.46,2.56,3.7,5.57,3.7,9.05v29.97c0,0.29,0.19,0.43,0.57,0.43h16.36c0.48,0,0.72-0.24,0.72-0.73l-0.15-29.68
	C192.05,148.04,189.44,141.24,184.24,135.45 M172.65,122.28c-2.32,2.22-4.98,3.33-7.97,3.33h-12.44v-22.72h12.44
	c3.09,0,5.77,1.11,8.04,3.32c2.27,2.22,3.4,4.88,3.4,7.96C176.12,117.35,174.96,120.06,172.65,122.28"/>
<path class="st0" d="M255.85,185.54l-17.23-99.46c-0.1-0.38-0.34-0.58-0.73-0.58h-20.99c-0.39,0-0.63,0.2-0.72,0.58l-17.96,99.46
	c0,0.49,0.2,0.72,0.58,0.72h16.07c0.39,0,0.62-0.24,0.73-0.72l1.59-10.57h19.69l1.59,10.57c0.09,0.49,0.33,0.72,0.72,0.72h16.07
	C255.75,186.27,255.95,186.03,255.85,185.54 M220.09,159.48l6.52-40.68l0.58-5.35l0.87,5.35l5.93,40.68H220.09z"/>
<path class="st0" d="M310.43,85.51h-16.21c-0.39,0-0.63,0.2-0.72,0.58l-11.58,66.31l-11.87-66.31c-0.1-0.38-0.34-0.58-0.72-0.58
	h-16.36c-0.49,0-0.68,0.2-0.58,0.58l19.98,99.46c0.1,0.48,0.34,0.72,0.72,0.72h17.52c0.39,0,0.63-0.24,0.72-0.72l19.69-99.46
	C311.11,85.7,310.91,85.51,310.43,85.51"/>
<path class="st0" d="M365.55,185.69v-16.5c0-0.48-0.19-0.72-0.58-0.72h-29.82v-25.33h29.82c0.39,0,0.58-0.19,0.58-0.58l-0.15-16.36
	c0-0.39-0.19-0.58-0.58-0.58h-29.68v-22.58h29.68c0.39,0,0.58-0.19,0.58-0.58V86.23c0-0.48-0.19-0.72-0.58-0.72h-46.47
	c-0.39,0-0.58,0.19-0.58,0.58l-0.14,99.46c0,0.48,0.19,0.72,0.58,0.72h46.76C365.35,186.27,365.55,186.07,365.55,185.69"/>
<path class="st0" d="M420.79,168.46h-28.61l0.14-82.23c0-0.48-0.24-0.72-0.72-0.72h-16.07c-0.48,0-0.72,0.24-0.72,0.72l-0.14,99.31
	c0,0.48,0.19,0.72,0.58,0.72h45.54c0.48,0,0.72-0.24,0.72-0.72v-16.36C421.51,168.7,421.27,168.46,420.79,168.46"/>
<path class="st0" d="M143.07,209.8c0.38,0,0.58-0.24,0.58-0.72v-16.2c0-0.38-0.24-0.58-0.72-0.58H82.58c-0.39,0-0.58,0.19-0.58,0.58
	l-0.14,16.2c0,0.48,0.24,0.72,0.72,0.72h21.48v82.42c0,0.48,0.19,0.72,0.58,0.72h16.34c0.38,0,0.58-0.24,0.58-0.72l-0.14-82.42
	H143.07z"/>
<path class="st0" d="M196.37,292.22l-17.2-99.34c-0.1-0.38-0.34-0.57-0.72-0.57h-20.96c-0.39,0-0.63,0.19-0.72,0.57l-17.93,99.34
	c0,0.48,0.2,0.72,0.58,0.72h16.05c0.38,0,0.63-0.24,0.72-0.72l1.59-10.56h19.67l1.6,10.56c0.1,0.48,0.33,0.72,0.72,0.72h16.05
	C196.27,292.95,196.46,292.7,196.37,292.22 M160.65,266.19l6.51-40.63l0.58-5.36l0.87,5.36l5.93,40.63H160.65z"/>
<path class="st0" d="M224,192.31H207.8c-0.39,0-0.58,0.19-0.58,0.58l-0.14,99.34c0,0.48,0.24,0.72,0.72,0.72h16.34
	c0.38,0,0.58-0.24,0.58-0.72l-0.15-99.34C224.58,192.5,224.38,192.31,224,192.31"/>
<path class="st1" d="M337.9,214.59c-2.26-11.15-10.41-19.3-21.54-21.61c-1.55-0.32-3.12-0.45-4.68-0.68h-3.83
	c-0.66,0.09-1.31,0.18-1.96,0.26c-6.33,0.79-11.9,3.23-16.48,7.71c-4.24,4.15-6.66,9.28-7.77,15.07c-0.92,4.79-1.09,9.55,0.44,14.29
	c1.67,5.17,3.82,10.12,6.21,14.98c4.15,8.46,8.8,16.64,13.65,24.72c2.43,4.04,4.91,8.07,7.46,12.04c0.34,0.53,0.57,0.55,0.9,0
	c0.64-1.04,1.33-2.06,1.98-3.1c4.98-8,9.83-16.07,14.31-24.36c3.8-7.03,7.43-14.14,10.15-21.67c0.91-2.53,1.71-5.08,1.94-7.78
	C338.95,221.14,338.56,217.86,337.9,214.59 M309.74,239.23c-9.43-0.04-17.19-7.91-17.17-17.39c0.03-9.6,7.75-17.22,17.44-17.19
	c9.58,0.03,17.28,7.68,17.29,17.19C327.32,231.48,319.46,239.27,309.74,239.23"/>
<path class="st0" d="M413.41,242.26c1.16-0.97,2.46-2.44,3.91-4.42c1.45-1.98,2.7-4.39,3.77-7.24c1.06-2.84,1.59-6.05,1.59-9.63
	c0-5.4-1.3-10.25-3.91-14.55c-2.61-4.29-6.11-7.72-10.49-10.28c-4.39-2.55-9.2-3.83-14.41-3.83h-29.24c-0.39,0-0.58,0.19-0.58,0.57
	l-0.24,82.85l-14.17,9.2l-19.89-12.9l-19.89,12.9l-19.89-12.91l-19.89,12.91l-14.21-9.22v-11.86l0.12-70.81
	c0-0.49-0.24-0.72-0.72-0.72h-17.44c-0.49,0-0.72,0.24-0.72,0.72v99.32c0,0.48,0.2,0.72,0.58,0.72h17.29l15.1,9.74l19.89-12.9
	l19.89,12.9l19.89-12.9l19.89,12.9l15.02-9.74h16.03c0.39,0,0.58-0.24,0.58-0.72l0.14-42.57h9.56c3.57,0,6.59,1.29,9.05,3.84
	c2.46,2.56,3.69,5.57,3.69,9.05v29.98c0,0.28,0.2,0.43,0.58,0.43h16.36c0.48,0,0.72-0.24,0.72-0.72l-0.14-29.68
	C421.23,254.85,418.63,248.05,413.41,242.26 M401.83,229.08c-2.32,2.22-4.97,3.33-7.96,3.33h-12.45v-22.73h12.45
	c3.09,0,5.77,1.11,8.04,3.32c2.27,2.22,3.4,4.88,3.4,7.96C405.3,224.16,404.14,226.86,401.83,229.08"/>
<path class="st0" d="M122.87,107.06v78.48c0,0.49-0.2,0.72-0.58,0.72h-16.36c-0.39,0-0.58-0.24-0.58-0.72v-70.02L122.87,107.06z"/>
<polygon class="st1" points="60.43,97.8 86.13,103.94 68.96,112.24 55.2,100.3 "/>
<polygon class="st0" points="88.45,102.8 66.97,86.37 75.91,82.08 109.92,92.44 "/>
<path class="st1" d="M139.59,85.62c-6.62,0-10.63,1.03-13.21,2.29c-3.68,1.81-54.88,26.53-54.88,26.53l10.26,8.91l78.63-37.73
	H139.59z"/>
<path class="st0" d="M115.02,311.29c-0.28-0.64-0.68-1.17-1.19-1.59c-0.52-0.42-1.15-0.74-1.88-0.95c-0.74-0.22-1.57-0.33-2.49-0.33
	h-5.39v14.29h2.73v-4.16h2.06c1.44,0,2.65-0.19,3.63-0.58c0.97-0.38,1.71-0.95,2.21-1.7c0.5-0.76,0.74-1.68,0.74-2.78
	C115.43,312.67,115.29,311.93,115.02,311.29 M111.8,315.68c-0.57,0.46-1.44,0.68-2.59,0.68h-2.43v-5.79h2.6
	c1.11,0,1.93,0.23,2.47,0.72c0.54,0.48,0.8,1.18,0.8,2.12C112.65,314.47,112.37,315.23,111.8,315.68"/>
<path class="st0" d="M127.79,319.01c-0.07,0.26-0.17,0.5-0.29,0.74c-0.12,0.23-0.28,0.43-0.48,0.61c-0.2,0.18-0.46,0.33-0.75,0.44
	c-0.29,0.11-0.66,0.16-1.09,0.16c-0.97,0-1.73-0.31-2.29-0.92c-0.49-0.55-0.72-1.39-0.78-2.43l7.94-0.06c0.07-1.05,0-1.98-0.21-2.78
	c-0.22-0.81-0.55-1.48-1-2.02c-0.45-0.54-0.99-0.95-1.65-1.22c-0.64-0.27-1.38-0.41-2.21-0.41c-0.88,0-1.66,0.15-2.35,0.46
	c-0.69,0.3-1.27,0.72-1.75,1.27c-0.48,0.55-0.84,1.2-1.09,1.95c-0.25,0.75-0.38,1.58-0.38,2.47c0,0.9,0.13,1.7,0.39,2.41
	c0.26,0.7,0.64,1.31,1.13,1.81c0.49,0.49,1.09,0.87,1.81,1.13c0.71,0.26,1.52,0.39,2.43,0.39c0.75,0,1.41-0.08,1.97-0.24
	c0.56-0.16,1.05-0.39,1.46-0.7c0.41-0.3,0.75-0.66,1.01-1.08c0.26-0.42,0.45-0.9,0.56-1.43L127.79,319.01z M122.41,315.08
	c0.24-0.59,0.58-1.04,1.03-1.35c0.44-0.31,0.97-0.46,1.56-0.46c0.52,0,0.99,0.13,1.39,0.38c0.4,0.25,0.72,0.64,0.93,1.17
	c0.13,0.32,0.19,0.71,0.21,1.14l-5.27,0.05C122.31,315.7,122.3,315.34,122.41,315.08"/>
<path class="st0" d="M141.01,311.12c-0.72,0-1.33,0.16-1.82,0.47c-0.49,0.31-0.87,0.77-1.15,1.39c-0.28,0.61-0.48,1.38-0.61,2.31
	h-0.39l0.04-3.9h-2.29v5.65v5.67h2.73v-5.29c0.13-0.72,0.32-1.35,0.57-1.87c0.25-0.52,0.58-0.93,1-1.22
	c0.41-0.29,0.9-0.43,1.46-0.43c0.2,0,0.42,0.02,0.66,0.05c0.24,0.04,0.47,0.1,0.7,0.18l0.11-2.88c-0.2-0.06-0.38-0.09-0.55-0.11
	C141.31,311.13,141.15,311.12,141.01,311.12"/>
<path class="st0" d="M154.35,316.99c-0.43-0.24-0.92-0.44-1.46-0.59c-0.54-0.15-1.1-0.29-1.68-0.4c-0.55-0.11-1.04-0.23-1.46-0.35
	c-0.43-0.12-0.76-0.27-1-0.45c-0.24-0.19-0.36-0.44-0.36-0.76c0-0.39,0.19-0.7,0.56-0.93c0.37-0.23,0.9-0.35,1.56-0.35
	c0.52,0,0.97,0.07,1.36,0.22c0.39,0.14,0.7,0.36,0.93,0.64c0.23,0.28,0.37,0.63,0.41,1.03l2.25-0.72c-0.12-0.66-0.39-1.24-0.82-1.72
	c-0.43-0.49-0.99-0.85-1.68-1.11c-0.69-0.26-1.5-0.39-2.44-0.39c-1,0-1.85,0.14-2.54,0.43c-0.7,0.29-1.23,0.68-1.6,1.19
	c-0.37,0.51-0.55,1.1-0.55,1.8c0,0.64,0.14,1.16,0.42,1.57c0.28,0.41,0.65,0.74,1.11,0.99c0.45,0.25,0.95,0.45,1.49,0.61
	c0.54,0.15,1.08,0.29,1.61,0.4c0.58,0.12,1.07,0.24,1.48,0.36c0.41,0.12,0.72,0.27,0.94,0.45c0.22,0.18,0.33,0.42,0.33,0.73
	c0,0.42-0.2,0.74-0.6,0.96c-0.4,0.22-0.96,0.34-1.68,0.34c-0.65,0-1.21-0.09-1.67-0.26c-0.46-0.17-0.82-0.4-1.08-0.7
	c-0.26-0.3-0.4-0.63-0.43-1.01l-2.14,0.8c0.06,0.49,0.22,0.93,0.48,1.33c0.26,0.4,0.61,0.74,1.04,1.02c0.43,0.28,0.96,0.5,1.57,0.65
	s1.3,0.23,2.07,0.23c1.04,0,1.93-0.13,2.68-0.4c0.74-0.27,1.32-0.66,1.72-1.19c0.4-0.53,0.61-1.16,0.61-1.92
	c0-0.62-0.13-1.13-0.39-1.53S154.78,317.24,154.35,316.99"/>
<path class="st0" d="M170.31,313.77c-0.49-0.89-1.16-1.55-2.01-2c-0.86-0.45-1.84-0.67-2.95-0.67c-1.07,0-2.03,0.21-2.88,0.65
	c-0.86,0.43-1.53,1.08-2.02,1.96c-0.5,0.87-0.75,1.97-0.75,3.3c0,1.31,0.24,2.4,0.72,3.29c0.48,0.88,1.15,1.56,2,2.01
	c0.85,0.45,1.84,0.68,2.94,0.68c1.09,0,2.06-0.21,2.92-0.64c0.86-0.42,1.54-1.08,2.02-1.96c0.49-0.88,0.74-1.98,0.74-3.31
	C171.05,315.76,170.8,314.67,170.31,313.77 M167.99,319.22c-0.23,0.56-0.55,0.99-0.97,1.27c-0.42,0.28-0.93,0.42-1.53,0.42
	c-0.94,0-1.68-0.34-2.22-1.02c-0.54-0.68-0.82-1.65-0.82-2.92c0-0.81,0.11-1.49,0.33-2.03c0.23-0.55,0.56-0.97,0.99-1.25
	c0.43-0.28,0.94-0.42,1.52-0.42c0.66,0,1.21,0.16,1.66,0.47c0.44,0.32,0.78,0.77,1.02,1.36c0.23,0.58,0.35,1.29,0.35,2.11
	C168.32,317.99,168.21,318.66,167.99,319.22"/>
<path class="st0" d="M182.33,311.1c-0.71,0-1.33,0.14-1.86,0.41c-0.53,0.28-0.97,0.68-1.31,1.23c-0.34,0.55-0.61,1.25-0.81,2.1
	h-0.39l0.06-3.46h-2.27v4.42v6.91h2.73v-5.13c0.01-0.75,0.13-1.44,0.36-2.07c0.22-0.63,0.55-1.13,0.96-1.52
	c0.42-0.38,0.93-0.57,1.54-0.57c0.72,0,1.27,0.29,1.63,0.85c0.37,0.57,0.55,1.47,0.55,2.7v5.74h2.75v-6.02
	c0-1.91-0.34-3.31-1.01-4.22C184.59,311.56,183.61,311.1,182.33,311.1"/>
<path class="st0" d="M201.04,321.18c-0.04-0.52-0.07-1.05-0.09-1.58c-0.02-0.53-0.03-1.04-0.03-1.53v-2.12
	c0-1.13-0.17-2.05-0.5-2.76c-0.34-0.71-0.84-1.24-1.51-1.58c-0.68-0.34-1.55-0.51-2.6-0.51c-0.69,0-1.33,0.07-1.9,0.22
	c-0.58,0.15-1.09,0.37-1.54,0.67c-0.44,0.3-0.82,0.67-1.13,1.09c-0.3,0.43-0.53,0.92-0.69,1.51l2.45,0.76
	c0.1-0.5,0.29-0.91,0.56-1.23c0.27-0.31,0.6-0.54,0.99-0.68c0.38-0.15,0.78-0.22,1.2-0.22c0.7,0,1.2,0.17,1.51,0.49
	c0.31,0.32,0.46,0.71,0.46,1.16c0,0.3-0.07,0.53-0.21,0.68c-0.15,0.15-0.38,0.27-0.68,0.34c-0.31,0.07-0.71,0.15-1.2,0.22
	c-0.9,0.13-1.68,0.28-2.34,0.46c-0.66,0.18-1.22,0.41-1.67,0.67c-0.44,0.27-0.78,0.61-1.01,1.03c-0.22,0.42-0.33,0.92-0.33,1.52
	c0,0.7,0.14,1.3,0.42,1.78c0.28,0.48,0.66,0.83,1.16,1.07c0.49,0.23,1.04,0.35,1.67,0.35c0.7,0,1.33-0.13,1.87-0.4
	c0.54-0.27,1-0.63,1.37-1.08c0.38-0.46,0.66-0.96,0.87-1.5h0.35c0.03,0.47,0.07,0.94,0.11,1.4c0.05,0.47,0.09,0.9,0.15,1.3h2.45
	C201.12,322.22,201.07,321.71,201.04,321.18 M197.65,319.63c-0.24,0.29-0.51,0.54-0.8,0.74c-0.29,0.2-0.58,0.36-0.88,0.46
	c-0.29,0.1-0.59,0.15-0.88,0.15c-0.49,0-0.89-0.14-1.21-0.42c-0.31-0.27-0.48-0.65-0.48-1.15c0-0.39,0.09-0.7,0.28-0.92
	c0.19-0.22,0.44-0.4,0.76-0.52c0.32-0.12,0.68-0.22,1.07-0.3c0.4-0.08,0.8-0.15,1.19-0.21c0.39-0.05,0.78-0.14,1.13-0.26
	c0.16-0.05,0.27-0.14,0.4-0.21l0.03,1.58C198.11,318.98,197.9,319.33,197.65,319.63"/>
<rect x="206.1" y="307.33" class="st0" width="2.69" height="15.38"/>
<rect x="214.05" y="311.39" class="st0" width="2.73" height="11.33"/>
<path class="st0" d="M215.42,306.84c-0.55,0-0.97,0.12-1.27,0.35c-0.3,0.24-0.44,0.58-0.44,1.03c0,0.45,0.15,0.79,0.44,1.03
	c0.3,0.24,0.72,0.36,1.27,0.36c0.56,0,0.99-0.12,1.29-0.36c0.29-0.24,0.44-0.58,0.44-1.03c0-0.46-0.14-0.81-0.43-1.04
	C216.43,306.95,216,306.84,215.42,306.84"/>
<polygon class="st0" points="224.65,320.18 230.75,313.68 230.75,311.39 221.31,311.39 221.31,313.62 227.24,313.62 227.24,313.92 
	221.22,320.37 221.22,322.71 230.8,322.71 230.8,320.46 224.65,320.46 "/>
<path class="st0" d="M242.94,319.01c-0.07,0.26-0.17,0.5-0.29,0.74c-0.13,0.23-0.29,0.43-0.49,0.61c-0.2,0.18-0.46,0.33-0.75,0.44
	c-0.29,0.11-0.66,0.16-1.09,0.16c-0.97,0-1.73-0.31-2.29-0.92c-0.49-0.55-0.72-1.39-0.78-2.43l7.94-0.06c0.07-1.05,0-1.98-0.21-2.78
	c-0.22-0.81-0.55-1.48-1-2.02c-0.45-0.54-1-0.95-1.64-1.22c-0.65-0.27-1.39-0.41-2.21-0.41c-0.88,0-1.66,0.15-2.35,0.46
	c-0.68,0.3-1.27,0.72-1.74,1.27c-0.48,0.55-0.84,1.2-1.1,1.95c-0.26,0.75-0.38,1.58-0.38,2.47c0,0.9,0.13,1.7,0.4,2.41
	c0.26,0.7,0.64,1.31,1.13,1.81c0.49,0.49,1.09,0.87,1.8,1.13c0.72,0.26,1.54,0.39,2.44,0.39c0.75,0,1.41-0.08,1.97-0.24
	c0.56-0.16,1.05-0.39,1.46-0.7c0.42-0.3,0.74-0.66,1.01-1.08c0.26-0.42,0.45-0.9,0.56-1.43L242.94,319.01z M237.56,315.08
	c0.23-0.59,0.58-1.04,1.03-1.35c0.45-0.31,0.97-0.46,1.55-0.46c0.52,0,0.98,0.13,1.39,0.38c0.4,0.25,0.72,0.64,0.93,1.17
	c0.13,0.32,0.19,0.71,0.21,1.14l-5.27,0.05C237.47,315.7,237.46,315.34,237.56,315.08"/>
<path class="st0" d="M257.78,307.33v3.57c0,0.34,0.02,0.71,0.07,1.12c0.05,0.41,0.11,0.84,0.19,1.29c0.07,0.45,0.15,0.9,0.23,1.34
	h-0.46c-0.19-0.7-0.44-1.32-0.76-1.85c-0.31-0.53-0.72-0.94-1.22-1.23c-0.5-0.29-1.13-0.44-1.9-0.44c-1,0-1.83,0.26-2.5,0.77
	c-0.67,0.51-1.18,1.21-1.53,2.1c-0.35,0.89-0.52,1.9-0.52,3.04c0,1.21,0.19,2.26,0.57,3.15c0.38,0.89,0.91,1.58,1.61,2.07
	c0.7,0.5,1.53,0.74,2.48,0.74c0.71,0,1.31-0.13,1.81-0.4c0.5-0.27,0.91-0.66,1.25-1.18c0.33-0.52,0.58-1.15,0.73-1.9h0.42l-0.05,3.2
	h2.32v-15.38H257.78z M257.8,317.25c0,0.36-0.06,0.75-0.19,1.16c-0.12,0.41-0.29,0.79-0.54,1.14c-0.24,0.34-0.54,0.63-0.9,0.85
	c-0.36,0.22-0.78,0.33-1.26,0.33c-0.55,0-1.02-0.15-1.42-0.46c-0.39-0.3-0.7-0.72-0.92-1.27c-0.21-0.55-0.32-1.19-0.32-1.93
	c0-0.74,0.11-1.38,0.32-1.92c0.21-0.55,0.51-0.99,0.9-1.3c0.39-0.32,0.86-0.48,1.43-0.48c0.38,0,0.72,0.07,1.03,0.23
	c0.32,0.15,0.59,0.35,0.83,0.6c0.24,0.25,0.43,0.54,0.59,0.84c0.15,0.32,0.26,0.62,0.34,0.95c0.08,0.32,0.12,0.61,0.12,0.89V317.25z
	"/>
<polygon class="st0" points="275.12,316.5 281.99,316.5 281.99,314.42 275.12,314.42 275.12,310.67 283,310.67 283,308.42 
	275.12,308.42 274.15,308.42 272.37,308.42 272.37,322.71 274.15,322.71 275.12,322.71 283.05,322.71 283.05,320.46 275.12,320.46 
	"/>
<polygon class="st0" points="298.13,311.39 294.97,311.39 292.72,315.76 292.37,315.76 290.12,311.39 286.96,311.39 290.74,317.06 
	286.96,322.71 290.14,322.71 292.37,318.32 292.72,318.32 295.03,322.71 298.17,322.71 294.34,317.06 "/>
<path class="st0" d="M312.89,313.95c-0.37-0.9-0.91-1.6-1.61-2.1c-0.71-0.5-1.57-0.74-2.58-0.74c-0.69,0-1.29,0.13-1.8,0.39
	c-0.5,0.26-0.92,0.64-1.24,1.15c-0.33,0.5-0.56,1.12-0.71,1.84l-0.36-0.03l0.02-3.07h-2.3v14.92h2.73v-3.14
	c0-0.36-0.02-0.74-0.06-1.14c-0.05-0.4-0.1-0.8-0.16-1.21c-0.07-0.41-0.14-0.8-0.23-1.2h0.39c0.2,0.67,0.46,1.25,0.78,1.76
	c0.32,0.51,0.73,0.9,1.23,1.19c0.51,0.29,1.13,0.43,1.86,0.43c1.01,0,1.86-0.26,2.55-0.77c0.68-0.51,1.2-1.21,1.54-2.1
	c0.33-0.89,0.51-1.89,0.51-3.02C313.44,315.91,313.25,314.85,312.89,313.95 M310.27,319c-0.2,0.56-0.5,0.99-0.89,1.3
	c-0.39,0.31-0.87,0.46-1.43,0.46c-0.38,0-0.72-0.07-1.04-0.21c-0.32-0.15-0.59-0.34-0.82-0.6c-0.23-0.25-0.43-0.53-0.59-0.85
	c-0.15-0.31-0.27-0.62-0.35-0.93c-0.08-0.31-0.12-0.61-0.12-0.9v-0.36c0-0.39,0.06-0.79,0.17-1.19c0.11-0.4,0.3-0.78,0.54-1.14
	c0.25-0.36,0.55-0.64,0.91-0.86c0.36-0.21,0.78-0.32,1.25-0.32c0.55,0,1.03,0.15,1.43,0.46c0.4,0.3,0.71,0.73,0.92,1.28
	c0.21,0.54,0.31,1.19,0.31,1.94C310.57,317.8,310.47,318.44,310.27,319"/>
<path class="st0" d="M325.92,319.01c-0.07,0.26-0.17,0.5-0.29,0.74c-0.13,0.23-0.29,0.43-0.49,0.61c-0.2,0.18-0.45,0.33-0.75,0.44
	c-0.3,0.11-0.66,0.16-1.09,0.16c-0.96,0-1.73-0.31-2.29-0.92c-0.49-0.55-0.72-1.39-0.78-2.43l7.94-0.06c0.07-1.05,0-1.98-0.21-2.78
	c-0.22-0.81-0.55-1.48-1-2.02c-0.44-0.54-1-0.95-1.64-1.22c-0.65-0.27-1.39-0.41-2.21-0.41c-0.88,0-1.66,0.15-2.35,0.46
	c-0.68,0.3-1.26,0.72-1.74,1.27c-0.48,0.55-0.85,1.2-1.1,1.95c-0.25,0.75-0.38,1.58-0.38,2.47c0,0.9,0.13,1.7,0.39,2.41
	c0.26,0.7,0.64,1.31,1.13,1.81c0.49,0.49,1.09,0.87,1.81,1.13c0.71,0.26,1.53,0.39,2.43,0.39c0.75,0,1.41-0.08,1.97-0.24
	c0.56-0.16,1.05-0.39,1.46-0.7c0.42-0.3,0.75-0.66,1.01-1.08c0.26-0.42,0.45-0.9,0.57-1.43L325.92,319.01z M320.54,315.08
	c0.23-0.59,0.58-1.04,1.03-1.35c0.45-0.31,0.97-0.46,1.56-0.46c0.52,0,0.98,0.13,1.39,0.38c0.41,0.25,0.72,0.64,0.93,1.17
	c0.13,0.32,0.19,0.71,0.21,1.14l-5.27,0.05C320.44,315.7,320.44,315.34,320.54,315.08"/>
<path class="st0" d="M339.14,311.12c-0.72,0-1.33,0.16-1.82,0.47c-0.49,0.31-0.87,0.77-1.15,1.39c-0.28,0.61-0.48,1.38-0.61,2.31
	h-0.39l0.04-3.9h-2.3v5.65v5.67h2.73v-5.29c0.13-0.72,0.32-1.35,0.58-1.87c0.25-0.52,0.59-0.93,0.99-1.22
	c0.41-0.29,0.9-0.43,1.46-0.43c0.2,0,0.42,0.02,0.66,0.05c0.24,0.04,0.47,0.1,0.71,0.18l0.11-2.88c-0.2-0.06-0.39-0.09-0.55-0.11
	C339.44,311.13,339.28,311.12,339.14,311.12"/>
<path class="st0" d="M345.68,306.84c-0.55,0-0.97,0.12-1.27,0.35c-0.3,0.24-0.45,0.58-0.45,1.03c0,0.45,0.15,0.79,0.45,1.03
	c0.3,0.24,0.72,0.36,1.27,0.36c0.56,0,0.99-0.12,1.29-0.36c0.3-0.24,0.44-0.58,0.44-1.03c0-0.46-0.14-0.81-0.43-1.04
	C346.69,306.95,346.25,306.84,345.68,306.84"/>
<rect x="344.31" y="311.39" class="st0" width="2.73" height="11.33"/>
<path class="st0" d="M360.03,319.01c-0.07,0.26-0.18,0.5-0.3,0.74c-0.12,0.23-0.28,0.43-0.49,0.61c-0.2,0.18-0.45,0.33-0.74,0.44
	c-0.29,0.11-0.66,0.16-1.09,0.16c-0.97,0-1.73-0.31-2.29-0.92c-0.49-0.55-0.73-1.39-0.78-2.43l7.94-0.06c0.07-1.05,0-1.98-0.22-2.78
	c-0.21-0.81-0.55-1.48-0.99-2.02c-0.45-0.54-1-0.95-1.65-1.22c-0.65-0.27-1.38-0.41-2.21-0.41c-0.88,0-1.67,0.15-2.35,0.46
	c-0.68,0.3-1.27,0.72-1.74,1.27c-0.48,0.55-0.84,1.2-1.09,1.95c-0.26,0.75-0.38,1.58-0.38,2.47c0,0.9,0.13,1.7,0.39,2.41
	c0.26,0.7,0.64,1.31,1.13,1.81c0.49,0.49,1.09,0.87,1.8,1.13c0.72,0.26,1.53,0.39,2.44,0.39c0.75,0,1.41-0.08,1.97-0.24
	c0.56-0.16,1.05-0.39,1.46-0.7c0.41-0.3,0.74-0.66,1.01-1.08c0.26-0.42,0.45-0.9,0.56-1.43L360.03,319.01z M354.64,315.08
	c0.23-0.59,0.58-1.04,1.03-1.35c0.45-0.31,0.97-0.46,1.56-0.46c0.52,0,0.98,0.13,1.39,0.38c0.4,0.25,0.71,0.64,0.93,1.17
	c0.13,0.32,0.19,0.71,0.21,1.14l-5.27,0.05C354.55,315.7,354.54,315.34,354.64,315.08"/>
<path class="st0" d="M373.62,311.1c-0.71,0-1.33,0.14-1.86,0.41c-0.54,0.28-0.97,0.68-1.31,1.23c-0.34,0.55-0.61,1.25-0.81,2.1
	h-0.39l0.07-3.46h-2.27v4.42v6.91h2.73v-5.13c0.02-0.75,0.13-1.44,0.36-2.07c0.22-0.63,0.55-1.13,0.97-1.52
	c0.42-0.38,0.93-0.57,1.54-0.57c0.72,0,1.27,0.29,1.64,0.85c0.37,0.57,0.55,1.47,0.55,2.7v5.74h2.75v-6.02
	c0-1.91-0.34-3.31-1.01-4.22C375.88,311.56,374.9,311.1,373.62,311.1"/>
<path class="st0" d="M390.08,319.7c-0.2,0.36-0.48,0.65-0.85,0.88c-0.37,0.23-0.85,0.34-1.44,0.34c-0.67,0-1.22-0.16-1.67-0.47
	c-0.45-0.31-0.78-0.75-0.99-1.31c-0.22-0.56-0.33-1.24-0.33-2.04c0-0.57,0.06-1.1,0.18-1.57c0.12-0.47,0.29-0.87,0.52-1.2
	c0.22-0.33,0.51-0.59,0.85-0.77c0.34-0.18,0.74-0.27,1.2-0.27c0.48,0,0.89,0.09,1.23,0.28c0.35,0.18,0.62,0.45,0.82,0.79
	c0.2,0.34,0.32,0.73,0.35,1.16l2.55-0.8c-0.14-0.72-0.43-1.35-0.84-1.89c-0.42-0.54-0.97-0.96-1.64-1.27
	c-0.67-0.3-1.46-0.46-2.37-0.46s-1.71,0.15-2.42,0.46c-0.7,0.3-1.29,0.73-1.76,1.28c-0.48,0.55-0.84,1.19-1.07,1.93
	c-0.24,0.74-0.36,1.55-0.36,2.42c0,0.83,0.12,1.59,0.35,2.3c0.23,0.71,0.58,1.32,1.05,1.85c0.47,0.53,1.06,0.93,1.78,1.22
	c0.71,0.29,1.56,0.43,2.54,0.43c0.78,0,1.46-0.09,2.06-0.28c0.59-0.19,1.1-0.46,1.53-0.81c0.42-0.35,0.76-0.77,1.01-1.24
	c0.25-0.47,0.41-1.01,0.5-1.6l-2.43-0.54C390.39,318.94,390.27,319.34,390.08,319.7"/>
<path class="st0" d="M404.99,319.01c-0.07,0.26-0.17,0.5-0.29,0.74c-0.12,0.23-0.29,0.43-0.49,0.61c-0.2,0.18-0.45,0.33-0.75,0.44
	c-0.3,0.11-0.66,0.16-1.09,0.16c-0.96,0-1.73-0.31-2.29-0.92c-0.49-0.55-0.72-1.39-0.78-2.43l7.94-0.06c0.07-1.05,0-1.98-0.21-2.78
	c-0.22-0.81-0.55-1.48-1-2.02c-0.44-0.54-1-0.95-1.64-1.22c-0.65-0.27-1.39-0.41-2.21-0.41c-0.88,0-1.66,0.15-2.35,0.46
	c-0.68,0.3-1.26,0.72-1.74,1.27c-0.48,0.55-0.85,1.2-1.1,1.95c-0.25,0.75-0.38,1.58-0.38,2.47c0,0.9,0.13,1.7,0.39,2.41
	c0.26,0.7,0.64,1.31,1.13,1.81c0.49,0.49,1.09,0.87,1.81,1.13c0.71,0.26,1.53,0.39,2.43,0.39c0.75,0,1.41-0.08,1.97-0.24
	c0.56-0.16,1.05-0.39,1.46-0.7c0.42-0.3,0.75-0.66,1.01-1.08c0.26-0.42,0.45-0.9,0.57-1.43L404.99,319.01z M399.61,315.08
	c0.23-0.59,0.58-1.04,1.03-1.35c0.45-0.31,0.97-0.46,1.56-0.46c0.52,0,0.98,0.13,1.39,0.38c0.41,0.25,0.72,0.64,0.93,1.17
	c0.13,0.32,0.19,0.71,0.21,1.14l-5.27,0.05C399.51,315.7,399.51,315.34,399.61,315.08"/>
<path class="st0" d="M421.13,317.96c-0.26-0.4-0.61-0.72-1.04-0.97c-0.43-0.24-0.92-0.44-1.46-0.59c-0.54-0.15-1.1-0.29-1.68-0.4
	c-0.55-0.12-1.03-0.23-1.46-0.35s-0.76-0.27-0.99-0.45c-0.24-0.19-0.36-0.44-0.36-0.76c0-0.39,0.19-0.7,0.56-0.93
	c0.38-0.23,0.9-0.35,1.56-0.35c0.52,0,0.97,0.07,1.36,0.22c0.39,0.14,0.7,0.35,0.93,0.64c0.23,0.28,0.37,0.63,0.41,1.03l2.25-0.72
	c-0.12-0.66-0.39-1.24-0.82-1.72c-0.43-0.49-0.99-0.85-1.68-1.11c-0.69-0.26-1.5-0.39-2.43-0.39c-1,0-1.84,0.14-2.55,0.43
	c-0.7,0.29-1.23,0.68-1.6,1.19c-0.37,0.51-0.55,1.1-0.55,1.8c0,0.64,0.14,1.16,0.42,1.57c0.28,0.41,0.65,0.74,1.1,0.99
	c0.46,0.25,0.95,0.46,1.5,0.61c0.54,0.15,1.08,0.29,1.61,0.4c0.58,0.12,1.07,0.23,1.48,0.36c0.41,0.12,0.72,0.27,0.94,0.45
	c0.22,0.18,0.32,0.42,0.32,0.73c0,0.42-0.2,0.74-0.6,0.96c-0.4,0.22-0.96,0.34-1.68,0.34c-0.65,0-1.2-0.09-1.67-0.26
	c-0.46-0.17-0.82-0.41-1.08-0.7c-0.26-0.3-0.4-0.63-0.43-1.01l-2.14,0.8c0.06,0.49,0.21,0.93,0.47,1.33
	c0.26,0.4,0.61,0.74,1.04,1.02c0.43,0.28,0.95,0.5,1.57,0.65c0.61,0.15,1.3,0.23,2.07,0.23c1.04,0,1.93-0.13,2.68-0.4
	c0.74-0.27,1.32-0.66,1.72-1.19c0.4-0.53,0.6-1.16,0.6-1.92C421.51,318.86,421.38,318.36,421.13,317.96"/>
</svg>
